<svg xmlns="http://www.w3.org/2000/svg" viewBox="0 0 512 640">
  <path d="M484.6 2H27.4C13.4 2 2 13.4 2 27.4v457.2c0 14 11.4 25.4 25.4 25.4h457.2c14 0 25.4-11.4 25.4-25.4V27.4c0-14-11.4-25.4-25.4-25.4zM301.2 240.1c7.5 9.3 7.5 22.5.1 31.8l-68.6 85.7h99.6c14 0 25.4 11.4 25.4 25.4s-11.4 25.4-25.4 25.4H179.8c-9.8 0-18.7-5.6-22.9-14.4-4.2-8.8-3-19.2 3.1-26.9l89.6-112c-17.3-19.9-44.4-53.8-89.6-110.3-6.1-7.6-7.3-18.1-3.1-26.9 4.2-8.8 13.1-14.4 22.9-14.4h152.4c14 0 25.4 11.4 25.4 25.4s-11.4 25.4-25.4 25.4h-99.6c29.3 36.7 67.5 84.4 68.6 85.8z"/>
</svg>